<?xml version="1.0" standalone="no"?>
<!DOCTYPE svg PUBLIC "-//W3C//DTD SVG 20010904//EN"
 "http://www.w3.org/TR/2001/REC-SVG-20010904/DTD/svg10.dtd">
<svg version="1.0" xmlns="http://www.w3.org/2000/svg"
 width="148.000000pt" height="161.000000pt" viewBox="0 0 148.000000 161.000000"
 preserveAspectRatio="xMidYMid meet">
<metadata>
Created by potrace 1.11, written by Peter Selinger 2001-2013
</metadata>
<g transform="translate(0.000000,161.000000) scale(0.100000,-0.100000)"
fill="#000000" stroke="none">
<path d="M1000 1531 l0 -79 78 1 77 2 1 78 1 77 -79 0 -78 0 0 -79z"/>
<path d="M1289 1443 c-2 -107 0 -146 9 -152 8 -5 147 -6 173 -2 3 1 5 43 4 94
l-1 92 -92 3 -92 3 -1 -38z"/>
<path d="M390 1432 c-57 -7 -137 -35 -158 -55 -49 -45 -58 -79 -67 -257 -9
-163 -12 -185 -29 -219 -15 -29 -60 -57 -118 -75 -15 -5 -18 -18 -18 -95 l0
-89 34 -6 c65 -12 112 -69 121 -144 2 -20 7 -93 10 -161 6 -144 17 -193 52
-240 36 -47 98 -71 201 -78 l88 -6 -1 91 c0 50 -2 92 -5 95 -3 3 -23 7 -45 10
-89 12 -96 23 -101 171 -7 185 -29 259 -97 324 l-35 34 38 34 c67 61 88 133
94 320 5 136 10 145 100 159 22 3 42 8 45 11 3 3 6 46 7 95 l0 90 -45 -3 c-25
-1 -57 -4 -71 -6z"/>
<path d="M777 1311 c-1 -3 -1 -19 -1 -36 1 -16 2 -44 3 -61 l1 -32 65 2 65 1
0 67 0 68 -65 -1 c-36 -1 -66 -4 -68 -8z"/>
<path d="M1158 1177 c-3 -7 -4 -43 -4 -82 l1 -70 83 -3 82 -4 0 84 0 84 -79 2
c-54 1 -81 -3 -83 -11z"/>
<path d="M520 1052 c-6 -2 -10 -56 -10 -133 l0 -129 130 0 c97 0 130 3 131 13
4 51 1 239 -4 244 -7 6 -229 11 -247 5z"/>
<path d="M949 865 c0 -8 -1 -33 -1 -55 0 -22 1 -57 1 -78 l1 -38 115 1 115 1
1 -41 c2 -189 1 -447 -3 -451 -3 -2 -132 -5 -287 -5 l-281 0 -1 -34 c0 -19 -1
-55 -1 -80 0 -25 1 -52 1 -60 1 -13 50 -15 380 -15 l379 0 0 435 0 435 -209 0
c-179 0 -209 -2 -210 -15z"/>
</g>
</svg>
