<?xml version="1.0" encoding="UTF-8" standalone="no"?>
<!-- Generator: Adobe Illustrator 18.1.1, SVG Export Plug-In . SVG Version: 6.00 Build 0)  -->

<svg
   xmlns:dc="http://purl.org/dc/elements/1.1/"
   xmlns:cc="http://creativecommons.org/ns#"
   xmlns:rdf="http://www.w3.org/1999/02/22-rdf-syntax-ns#"
   xmlns:svg="http://www.w3.org/2000/svg"
   xmlns="http://www.w3.org/2000/svg"
   xmlns:sodipodi="http://sodipodi.sourceforge.net/DTD/sodipodi-0.dtd"
   xmlns:inkscape="http://www.inkscape.org/namespaces/inkscape"
   version="1.1"
   id="Layer_1"
   x="0px"
   y="0px"
   viewBox="0 0 252.71546 43.742371"
   enable-background="new 0 0 960 960"
   xml:space="preserve"
   inkscape:version="0.91 r13725"
   sodipodi:docname="logo-footer.svg"
   width="252.71545"
   height="43.742371"
   inkscape:export-filename="D:\Blog\Beyond Code\assets\img\logo.png"
   inkscape:export-xdpi="90"
   inkscape:export-ydpi="90"><metadata
     id="metadata43"><rdf:RDF><cc:Work
         rdf:about=""><dc:format>image/svg+xml</dc:format><dc:type
           rdf:resource="http://purl.org/dc/dcmitype/StillImage" /><dc:title></dc:title></cc:Work></rdf:RDF></metadata><defs
     id="defs41" /><sodipodi:namedview
     pagecolor="#ffffff"
     bordercolor="#666666"
     borderopacity="1"
     objecttolerance="10"
     gridtolerance="10"
     guidetolerance="10"
     inkscape:pageopacity="0"
     inkscape:pageshadow="2"
     inkscape:window-width="2195"
     inkscape:window-height="1197"
     id="namedview39"
     showgrid="false"
     inkscape:zoom="1"
     inkscape:cx="42.462405"
     inkscape:cy="-2.401712"
     inkscape:window-x="151"
     inkscape:window-y="233"
     inkscape:window-maximized="0"
     inkscape:current-layer="g5"
     fit-margin-top="0"
     fit-margin-left="0"
     fit-margin-right="0"
     fit-margin-bottom="0"
     units="px" /><g
     id="g3"
     transform="matrix(0.18524587,0,0,0.18524587,-71.838348,-56.907534)"><rect
       x="451.79999"
       y="377"
       width="32.599998"
       height="32.599998"
       id="rect25"
       style="fill:#28b6e9" /><rect
       x="512.79999"
       y="307.20001"
       width="19.5"
       height="19.5"
       id="rect27"
       style="fill:#0d9fda" /><rect
       x="548.70001"
       y="323.89999"
       width="23.4"
       height="23.4"
       id="rect29"
       style="fill:#4dc7ef" /><rect
       x="532.29999"
       y="360.10001"
       width="20.4"
       height="20.4"
       id="rect31"
       style="fill:#0d9fda" /><rect
       x="485.10001"
       y="343.79999"
       width="16.299999"
       height="16.299999"
       id="rect33"
       style="fill:#4dc7ef" /><path
       d="m 407.8,382.4 c 0.5,-10.5 1,-20.9 1.9,-31.4 0.8,-9.6 6.6,-16.4 15.4,-19 8,-2.4 16.6,-2.7 25.6,-4 0,9.3 0,16.7 0,24 -18.4,1.9 -18.5,1.9 -18.8,20.5 -0.2,16.7 0.1,33.6 -17.1,44.4 17.3,11.5 16.5,28.8 17,45.4 0.6,19.5 0.4,19.5 18.9,21.8 0,7.4 0,14.8 0,22.9 -4.8,0 -9.1,0.5 -13.3,-0.1 -20.4,-2.6 -26.5,-8.9 -28.4,-29.7 -0.7,-7.5 -1.1,-15.2 -1.1,-22.7 0.2,-14.1 -4,-24.8 -20.1,-26.7 0,-4.4 0,-8 0,-11.6 0,-3.5 0,-7.1 0,-10.4 16,-3.9 19.3,-8 20,-23.4 z"
       id="path35"
       inkscape:connector-curvature="0"
       style="fill:#0d9fda" /><polygon
       points="535.7,398.5 558.8,398.5 558.8,421.6 558.8,484 558.8,507.1 535.7,507.1 463.9,507.1 463.9,484 535.7,484 535.7,421.6 506.4,421.6 506.4,398.5 "
       id="polygon37"
       style="fill:#0d9fda" /></g><g
     transform="matrix(0.32748992,0,0,0.32748992,-77.242666,-145.52673)"
     id="g5"
     style="fill:#000000;fill-opacity:1"><path
       inkscape:connector-curvature="0"
       d="m 399.15112,480.4398 c 9.66451,0 16.75197,1.48734 21.26242,4.45691 4.51043,2.97085 6.76374,7.82286 6.76374,14.54965 0,4.36897 -1.10881,7.94519 -3.32643,10.73762 -2.22018,2.79115 -5.44338,4.86857 -9.66449,6.22846 3.00652,0.64489 5.51092,1.55871 7.51697,2.73634 2.00096,1.184 3.61191,2.56174 4.82906,4.13446 1.21714,1.57528 2.07488,3.3137 2.57576,5.2076 0.50342,1.89771 0.75323,3.88337 0.75323,5.95954 0,13.67406 -9.19932,20.50917 -27.59666,20.50917 l -22.86699,0 c -1.00431,0 -1.82636,-0.26637 -2.46998,-0.80674 -0.6449,-0.53785 -0.96735,-1.41087 -0.96735,-2.62802 l 0,-67.64769 c 0,-1.21585 0.32245,-2.09271 0.96735,-2.62926 0.64488,-0.53657 1.46439,-0.80677 2.46998,-0.80677 l 19.75339,-0.001 0,0 z m 21.15409,19.97261 c 0,-2.43299 -0.35942,-4.52955 -1.0744,-6.28326 -0.71627,-1.75369 -1.89646,-3.20408 -3.54438,-4.34984 -1.64536,-1.14196 -3.84771,-2.00097 -6.60188,-2.57577 -2.75546,-0.57097 -6.17749,-0.85774 -10.25586,-0.85774 l -16.42826,0 0,27.91657 15.46091,0 c 7.66099,0 13.31593,-1.11008 16.96608,-3.32771 3.65271,-2.21763 5.47779,-5.72631 5.47779,-10.52225 z m 2.57701,34.25208 c 0,-2.4292 -0.3594,-4.58053 -1.07694,-6.44257 -0.71627,-1.85949 -1.94997,-3.37869 -3.7024,-4.5627 -1.75498,-1.18273 -4.06309,-2.07615 -6.92561,-2.68154 -2.86506,-0.6092 -6.44385,-0.91381 -10.74017,-0.91381 l -18.03667,0 0,28.98968 19.43351,0 c 7.58707,0 12.99221,-1.18019 16.21413,-3.54182 3.22447,-2.36419 4.83415,-5.97867 4.83415,-10.84724 z"
       id="path7-9"
       style="fill:#ffffff;fill-opacity:1" /><path
       inkscape:connector-curvature="0"
       d="m 489.3459,526.07438 c 0,0.92911 -0.26637,1.59441 -0.80675,1.98695 -0.53529,0.39636 -1.23244,0.59136 -2.09145,0.59136 l -40.05357,0 c 0.14274,7.16012 1.84292,12.70799 5.09925,16.64364 3.26018,3.93819 7.93119,5.90729 14.01308,5.90729 2.43174,0 4.49132,-0.26892 6.17495,-0.80676 1.68104,-0.53783 3.11485,-1.21714 4.29504,-2.04175 1.18145,-0.82204 2.16281,-1.71801 2.95173,-2.68281 0.78636,-0.96862 1.46567,-1.87988 2.04173,-2.73761 0.42952,-0.57225 0.78637,-1.00048 1.07441,-1.28979 0.28549,-0.28676 0.71499,-0.42823 1.28851,-0.42823 0.71627,0 1.43126,0.21412 2.15007,0.6449 0.715,0.42823 1.07441,1.03744 1.07441,1.82507 0,0.86156 -0.35941,1.78939 -1.07441,2.78987 -0.64488,1.00558 -1.48605,2.09655 -2.52222,3.27546 -1.03744,1.18019 -2.36291,2.29281 -3.97515,3.32771 -1.61097,1.03744 -3.52525,1.91429 -5.74287,2.63055 -2.22019,0.71499 -4.79847,1.07313 -7.73109,1.07313 -4.22241,0 -7.92992,-0.69715 -11.11489,-2.094 -3.18369,-1.3994 -5.85121,-3.36595 -7.99746,-5.90729 -2.14624,-2.53879 -3.77632,-5.56317 -4.88386,-9.07313 -1.11137,-3.50486 -1.66831,-7.40737 -1.66831,-11.70369 0,-4.15103 0.59264,-7.99874 1.77282,-11.54311 1.184,-3.54436 2.88291,-6.56748 5.1018,-9.07314 2.21763,-2.50692 4.88515,-4.47348 7.99875,-5.906 3.11486,-1.43127 6.60441,-2.15008 10.46997,-2.15008 3.93564,0 7.40736,0.69842 10.41391,2.09654 3.0078,1.39686 5.53386,3.29203 7.57049,5.69063 2.04176,2.39988 3.58006,5.22672 4.6175,8.48177 1.03362,3.26143 1.55361,6.751 1.55361,10.47252 z m -24.26767,-21.25985 c -2.93261,0 -5.51092,0.50343 -7.72726,1.5039 -2.22018,1.0043 -4.08222,2.36292 -5.58485,4.08221 -1.5039,1.71803 -2.68154,3.7228 -3.54308,6.0118 -0.85775,2.29282 -1.39559,4.69014 -1.61225,7.19452 l 36.5092,0 c -0.21284,-2.50438 -0.73283,-4.88387 -1.55743,-7.13971 -0.8246,-2.25714 -1.97292,-4.24153 -3.43604,-5.96083 -1.46694,-1.71929 -3.27418,-3.09575 -5.42043,-4.13191 -2.15134,-1.03999 -4.69014,-1.55998 -7.62786,-1.55998 z"
       id="path9-9"
       style="fill:#ffffff;fill-opacity:1" /><path
       inkscape:connector-curvature="0"
       d="m 515.33159,575.5758 c -0.64489,1.57272 -1.574,2.36291 -2.78859,2.36291 -0.86157,0 -1.59566,-0.25108 -2.20361,-0.75195 -0.60794,-0.50087 -0.91126,-1.18273 -0.91126,-2.03919 0,-0.5748 0.24853,-1.46823 0.75068,-2.68536 l 8.05353,-18.03922 -20.40212,-48.74818 c -0.14401,-0.35685 -0.28931,-0.76979 -0.43077,-1.23498 -0.14147,-0.46264 -0.21285,-0.91382 -0.21285,-1.34331 0,-0.92912 0.41167,-1.62755 1.23372,-2.09401 0.82332,-0.46392 1.73458,-0.6997 2.7376,-0.6997 0.92911,0 1.71931,0.78892 2.36292,2.36292 l 18.14627,43.70245 19.00655,-43.80951 c 0.5697,-1.5039 1.35606,-2.25714 2.36164,-2.25714 0.92911,0 1.7894,0.23579 2.57576,0.69971 0.78509,0.46391 1.184,1.08969 1.184,1.8786 0,0.28932 -0.0739,0.66402 -0.21665,1.12794 -0.14276,0.46772 -0.28678,0.91507 -0.42823,1.34331 l -30.81859,70.22471 z"
       id="path11-4"
       style="fill:#ffffff;fill-opacity:1" /><path
       inkscape:connector-curvature="0"
       d="m 553.45176,528.0078 c 0,-4.51043 0.62451,-8.53656 1.88115,-12.08094 1.25029,-3.54182 3.00271,-6.55091 5.25984,-9.01834 2.25586,-2.46998 4.97309,-4.34857 8.1606,-5.63837 3.18114,-1.28978 6.71149,-1.93468 10.57704,-1.93468 3.86427,0 7.40737,0.6449 10.63056,1.93468 3.21938,1.2898 5.95699,3.16712 8.21031,5.63837 2.25585,2.46998 4.00956,5.47652 5.26494,9.01834 1.249,3.54182 1.88116,7.56794 1.88116,12.08094 0,4.51171 -0.62961,8.55314 -1.88116,12.13574 -1.25411,3.58006 -3.0078,6.60188 -5.26494,9.07058 -2.25586,2.47125 -4.99093,4.34859 -8.21031,5.63837 -3.22065,1.2898 -6.76629,1.9347 -10.63056,1.9347 -3.86555,0 -7.3959,-0.6449 -10.57704,-1.9347 -3.18624,-1.28978 -5.90729,-3.16585 -8.1606,-5.63837 -2.25586,-2.46997 -4.00955,-5.49179 -5.25984,-9.07058 -1.25664,-3.5826 -1.88115,-7.62531 -1.88115,-12.13574 z m 6.76375,0 c 0,7.37423 1.6441,13.06358 4.93738,17.07442 3.2933,4.00829 8.01786,6.01178 14.17495,6.01178 6.22719,0 10.98615,-2.00094 14.27945,-6.01178 3.29329,-4.01084 4.94122,-9.69764 4.94122,-17.07442 0,-7.30159 -1.64793,-12.97436 -4.94122,-17.01962 -3.2933,-4.0427 -8.05226,-6.06787 -14.27945,-6.06787 -6.15709,0 -10.88165,2.02517 -14.17495,6.06787 -3.29328,4.04526 -4.93738,9.71803 -4.93738,17.01962 z"
       id="path13-9"
       style="fill:#ffffff;fill-opacity:1" /><path
       inkscape:connector-curvature="0"
       d="m 625.92849,552.59664 c 0,1.21715 -0.26891,2.04173 -0.8042,2.46997 -0.54038,0.43078 -1.30636,0.6449 -2.30939,0.6449 -1.00302,0 -1.77282,-0.21412 -2.30939,-0.6449 -0.53656,-0.42824 -0.80547,-1.25154 -0.80547,-2.46997 l 0,-49.28475 c 0,-1.14321 0.26891,-1.91429 0.80547,-2.30938 0.53657,-0.39381 1.23628,-0.5901 2.09527,-0.5901 0.92911,0 1.6798,0.19629 2.25586,0.5901 0.57353,0.39509 0.85774,1.16361 0.85774,2.30938 l 0,9.77029 c 0.43077,-0.92911 1.11008,-2.18321 2.04302,-3.75722 0.93038,-1.57272 2.23801,-3.09575 3.9178,-4.5627 1.68105,-1.46693 3.72026,-2.73634 6.12268,-3.812 2.39732,-1.0744 5.24199,-1.61224 8.53528,-1.61224 5.51093,0 9.96784,1.52174 13.36693,4.56269 3.40034,3.04732 5.10052,7.78589 5.10052,14.22975 l 0,35.00147 c 0,1.72056 -0.96606,2.5783 -2.89947,2.5783 -2.21891,0 -3.32644,-0.85901 -3.32644,-2.5783 l 0,-32.63984 c 0,-4.8673 -0.98265,-8.58881 -2.95173,-11.16841 -1.97037,-2.57574 -5.49563,-3.86426 -10.57704,-3.86426 -3.36595,0 -6.26542,0.71628 -8.69715,2.14753 -2.4343,1.43382 -4.42124,3.27545 -5.95954,5.5313 -1.5396,2.25586 -2.66753,4.79721 -3.38253,7.62149 -0.71626,2.83066 -1.07312,5.60269 -1.07312,8.32119 l 0,23.51571 -0.005,0 z"
       id="path15-0"
       style="fill:#ffffff;fill-opacity:1" /><path
       inkscape:connector-curvature="0"
       d="m 728.57892,552.81076 c 0,1.14449 -0.23323,1.91684 -0.69715,2.30938 -0.46648,0.39128 -1.16489,0.59009 -2.09527,0.59009 -0.93038,0 -1.68107,-0.19881 -2.25714,-0.59009 -0.57224,-0.39637 -0.85773,-1.16489 -0.85773,-2.30938 l 0,-7.19453 c -1.9347,3.86299 -4.5818,6.69365 -7.94521,8.48049 -3.36722,1.7894 -7.26717,2.68537 -11.70624,2.68537 -3.79544,0 -7.15883,-0.71628 -10.09144,-2.14881 -2.939,-1.43125 -5.42426,-3.43477 -7.46218,-6.01435 -2.04174,-2.57574 -3.58134,-5.61797 -4.61751,-9.12793 -1.03616,-3.50485 -1.55615,-7.3704 -1.55615,-11.59664 0,-4.22113 0.53529,-8.08795 1.61096,-11.59662 1.07313,-3.50615 2.62928,-6.5114 4.66848,-9.01962 2.04301,-2.5031 4.56525,-4.45435 7.57051,-5.8512 3.00526,-1.39812 6.40307,-2.09655 10.19978,-2.09655 4.58182,0 8.39255,0.91383 11.43733,2.73762 3.04349,1.82508 5.60267,4.20711 7.67501,7.141 l 0,-26.30686 c 0,-1.21588 0.27019,-2.05576 0.80547,-2.5235 0.53911,-0.46265 1.30636,-0.69715 2.3094,-0.69715 1.00047,0 1.75625,0.2345 2.25712,0.69715 0.50088,0.46774 0.75068,1.30762 0.75068,2.5235 l 10e-4,69.90863 0,0 z m -42.521,-24.58884 c 0,3.36849 0.39509,6.46296 1.18528,9.28852 0.78636,2.83066 1.94742,5.24455 3.48575,7.24933 1.53958,2.00351 3.45516,3.56221 5.7467,4.67231 2.29026,1.11007 4.90171,1.6632 7.83688,1.6632 3.00652,0 5.65493,-0.59009 7.9452,-1.77282 2.29154,-1.18019 4.2224,-2.8077 5.79769,-4.88387 1.57526,-2.07615 2.758,-4.52828 3.54435,-7.35512 0.78638,-2.82555 1.18019,-5.92129 1.18019,-9.28851 0,-7.15629 -1.71674,-12.72201 -5.15278,-16.69717 -3.43732,-3.9726 -8.0905,-5.96081 -13.95955,-5.96081 -2.93771,0 -5.51347,0.55695 -7.72727,1.66576 -2.22018,1.11136 -4.06309,2.68282 -5.53258,4.72455 -1.46696,2.04047 -2.55919,4.47476 -3.27418,7.30159 -0.71627,2.82684 -1.07568,5.95954 -1.07568,9.39304 z"
       id="path17-7"
       style="fill:#ffffff;fill-opacity:1" /><path
       inkscape:connector-curvature="0"
       d="m 779.25924,491.28321 c -3.43349,0 -6.40562,0.69969 -8.91,2.09526 -2.51075,1.39686 -4.54741,3.29458 -6.12269,5.69191 -1.57398,2.39859 -2.73634,5.18974 -3.48829,8.37343 -0.75067,3.18752 -1.1292,6.53434 -1.1292,10.04175 0,3.65015 0.37853,7.10404 1.1292,10.36166 0.75195,3.2576 1.93213,6.0857 3.54055,8.48304 1.61351,2.39988 3.67055,4.29376 6.17621,5.69062 2.50566,1.39685 5.51347,2.09398 9.0196,2.09398 1.57145,0 3.00527,-0.1249 4.29506,-0.37596 1.29105,-0.24853 2.50565,-0.6449 3.64887,-1.18019 1.14578,-0.53783 2.25714,-1.25155 3.33026,-2.14879 1.07185,-0.89343 2.21763,-1.94871 3.43476,-3.16585 1.57146,-1.64792 2.8281,-2.88291 3.75466,-3.70624 0.93039,-0.82204 2.15134,-1.23498 3.65145,-1.23498 1.86202,0 3.5074,0.66401 4.93869,1.98694 1.43127,1.32675 2.15005,2.88545 2.15005,4.67229 0,2.78988 -1.36117,5.58358 -4.08094,8.37344 -2.28902,2.4343 -5.6027,4.6175 -9.93087,6.55218 -4.33074,1.93469 -9.64539,2.89693 -15.94776,2.89693 -6.44132,0 -11.90125,-1.07312 -16.37472,-3.22064 -4.47348,-2.14754 -8.07265,-5.02789 -10.78989,-8.64236 -2.72358,-3.61447 -4.6914,-7.74639 -5.90728,-12.40084 -1.21715,-4.65064 -1.82635,-9.44912 -1.82635,-14.38778 0,-5.22544 0.69714,-10.21891 2.09654,-14.97916 1.39431,-4.76024 3.5584,-8.96735 6.49484,-12.61495 2.93517,-3.65143 6.6911,-6.55346 11.27673,-8.69843 4.578,-2.1488 10.05578,-3.22065 16.42824,-3.22065 2.78861,0 5.40387,0.27019 7.83815,0.80548 2.43175,0.53657 4.66848,1.23754 6.7115,2.09527 2.04173,0.85901 3.86427,1.86204 5.4765,3.00526 1.61097,1.14577 2.99,2.32723 4.13195,3.5431 1.14449,1.21842 2.09397,2.48909 2.84588,3.81201 0.75201,1.3242 1.12667,2.70195 1.12667,4.1332 0,1.9334 -0.64356,3.56221 -1.93341,4.88641 -1.28851,1.32547 -2.96958,1.98567 -5.04569,1.98567 -1.9347,0 -3.38252,-0.42823 -4.3486,-1.28852 -0.96733,-0.85774 -2.05957,-1.96782 -3.27417,-3.32771 -2.29155,-2.50565 -4.49259,-4.29505 -6.60444,-5.37072 -2.10929,-1.07694 -4.70544,-1.61606 -7.78206,-1.61606 z"
       id="path19-0"
       style="fill:#ffffff;fill-opacity:1" /><path
       inkscape:connector-curvature="0"
       d="m 874.71641,527.04173 c 0,4.51172 -0.68192,8.58883 -2.04168,12.24025 -1.35998,3.65144 -3.29339,6.7663 -5.79902,9.34205 -2.50819,2.57576 -5.51094,4.58309 -9.01708,6.01434 -3.50989,1.43127 -7.40987,2.14882 -11.70621,2.14882 -4.43904,0 -8.4308,-0.69971 -11.97135,-2.09401 -3.54442,-1.39939 -6.55355,-3.38251 -9.02084,-5.96208 -2.47127,-2.57576 -4.36774,-5.69063 -5.69068,-9.34205 -1.32544,-3.64889 -1.99079,-7.69158 -1.99079,-12.1332 0,-4.43779 0.69978,-8.46392 2.09661,-12.08096 1.39686,-3.61318 3.36463,-6.69236 5.9073,-9.23243 2.54001,-2.54008 5.56313,-4.50917 9.07182,-5.90729 3.50739,-1.39557 7.40868,-2.094 11.70496,-2.094 4.29634,0 8.17715,0.69843 11.65147,2.094 3.47296,1.39812 6.4566,3.3481 8.96479,5.85503 2.50563,2.50566 4.43659,5.56446 5.79902,9.17765 1.35976,3.61574 2.04168,7.60746 2.04168,11.97388 z m -14.92568,0.42823 c 0,-5.2968 -1.18008,-9.44911 -3.54311,-12.45437 -2.36288,-3.00399 -5.72626,-4.50917 -10.09264,-4.50917 -4.15227,0 -7.42784,1.48734 -9.82514,4.45564 -2.39981,2.97085 -3.59656,7.14228 -3.59656,12.5079 0,5.36945 1.19675,9.52175 3.59656,12.45693 2.3973,2.93515 5.67287,4.40082 9.82514,4.40082 4.29378,0 7.63924,-1.46567 10.04051,-4.40082 2.3973,-2.93518 3.59524,-7.08748 3.59524,-12.45693 z"
       id="path21-5"
       style="fill:#ffffff;fill-opacity:1" /><path
       inkscape:connector-curvature="0"
       d="m 940.32106,549.80422 c 0,3.93819 -2.36293,5.90729 -7.08748,5.90729 -2.64839,0 -4.54738,-0.46774 -5.69058,-1.39941 -1.14587,-0.9291 -1.72191,-2.42918 -1.72191,-4.50788 l 0,-0.43077 c -0.92909,1.4338 -2.14621,2.68536 -3.64753,3.75848 -1.28732,0.93038 -2.93516,1.77282 -4.93997,2.5235 -2.0035,0.75195 -4.43779,1.12793 -7.30154,1.12793 -3.86566,0 -7.31946,-0.73666 -10.36165,-2.2036 -3.04229,-1.46696 -5.58234,-3.50742 -7.62158,-6.12141 -2.04169,-2.61145 -3.59524,-5.72503 -4.67096,-9.34204 -1.07702,-3.61193 -1.61227,-7.56796 -1.61227,-11.86428 0,-4.22241 0.53525,-8.12237 1.61227,-11.70497 1.07572,-3.58006 2.66631,-6.67327 4.7793,-9.28726 2.10808,-2.61271 4.68762,-4.6519 7.72725,-6.12267 3.04354,-1.46312 6.49995,-2.20105 10.3617,-2.20105 2.15132,0 4.06305,0.25108 5.74803,0.75194 1.67976,0.50088 3.14922,1.14451 4.3995,1.93214 1.25159,0.7902 2.30939,1.68361 3.16839,2.68536 0.85899,1.00303 1.53705,1.97038 2.03923,2.89948 l 0,-20.83417 c 0,-2.29027 0.75327,-3.81202 2.25705,-4.56269 1.50524,-0.75197 3.22072,-1.12794 5.15413,-1.12794 2.50569,0 4.36518,0.53657 5.5848,1.61224 1.21466,1.07312 1.82638,2.54007 1.82638,4.40083 l 0,64.11095 0,0 z m -39.40739,-22.33426 c 0,4.93868 1.03742,9.02216 3.11489,12.24024 2.07617,3.22067 5.22408,4.83164 9.44775,4.83164 4.07967,0 7.19587,-1.53578 9.34219,-4.61495 2.14746,-3.07663 3.22057,-7.2315 3.22057,-12.45693 0,-2.43174 -0.27016,-4.68631 -0.80546,-6.76375 -0.53911,-2.07615 -1.30513,-3.88465 -2.30944,-5.42553 -1.00181,-1.53832 -2.29022,-2.73507 -3.86295,-3.59408 -1.57659,-0.86027 -3.36855,-1.28979 -5.37205,-1.28979 -2.07616,0 -3.91774,0.42952 -5.5287,1.28979 -1.61097,0.85901 -2.95183,2.05576 -4.02744,3.59408 -1.0731,1.54088 -1.87736,3.34938 -2.41642,5.42553 -0.53404,2.07744 -0.80294,4.33201 -0.80294,6.76375 z"
       id="path23-1"
       style="fill:#ffffff;fill-opacity:1" /><path
       inkscape:connector-curvature="0"
       d="m 981.9805,497.94244 c 7.80367,0 14.01434,2.41645 18.6294,7.24679 4.6186,4.83289 6.9268,11.76104 6.9268,20.78065 0,2.07743 -0.6284,3.50741 -1.8812,4.29505 -1.2503,0.78637 -3.0218,1.18018 -5.3121,1.18018 l -31.14227,0 c 0.71629,8.80677 5.47657,13.20759 14.28069,13.20759 2.29158,0 4.22373,-0.37596 5.79771,-1.12793 1.57409,-0.75195 2.93652,-1.41086 4.07972,-1.98693 1.07561,-0.57224 2.07616,-1.1445 3.00776,-1.71801 0.9291,-0.57226 2.04164,-0.86157 3.32765,-0.86157 1.43134,0 2.75434,0.71628 3.97134,2.15135 1.2172,1.43125 1.8264,3.04222 1.8264,4.82906 0,1.2898 -0.3747,2.41644 -1.1292,3.37997 -0.7507,0.9686 -1.9857,1.9895 -3.7011,3.06133 -2.29158,1.43127 -5.02919,2.5235 -8.21413,3.27546 -3.1863,0.75195 -6.31776,1.12793 -9.39437,1.12793 -4.43909,0 -8.46642,-0.5748 -12.08089,-1.72057 -3.61572,-1.14195 -6.67582,-2.89948 -9.18151,-5.25984 -2.50569,-2.3642 -4.43904,-5.3516 -5.79891,-8.96608 -1.35982,-3.61447 -2.04049,-7.89039 -2.04049,-12.83162 0,-3.79417 0.53661,-7.49786 1.61091,-11.11487 1.07441,-3.6132 2.75422,-6.81983 5.0458,-9.6097 2.29152,-2.79115 5.20887,-5.04573 8.75193,-6.76629 3.54693,-1.71293 7.75149,-2.57195 12.62006,-2.57195 z m 10.6318,22.44133 c 0,-1.30127 -0.21667,-2.59997 -0.64484,-3.90251 -0.43077,-1.30126 -1.09222,-2.49546 -1.98945,-3.58006 -0.89347,-1.08587 -2.02142,-1.95125 -3.37873,-2.60251 -1.36244,-0.65255 -3.00777,-0.97754 -4.94003,-0.97754 -3.07906,0 -5.74411,0.94058 -7.9973,2.82046 -2.25601,1.87987 -3.56223,4.62513 -3.92171,8.24088 l 22.87206,0.001 0,0 z"
       id="path25"
       style="fill:#ffffff;fill-opacity:1" /></g></svg>