<?xml version="1.0" encoding="UTF-8" standalone="no"?>
<!-- Generator: Adobe Illustrator 18.1.1, SVG Export Plug-In . SVG Version: 6.00 Build 0)  -->

<svg
   xmlns:dc="http://purl.org/dc/elements/1.1/"
   xmlns:cc="http://creativecommons.org/ns#"
   xmlns:rdf="http://www.w3.org/1999/02/22-rdf-syntax-ns#"
   xmlns:svg="http://www.w3.org/2000/svg"
   xmlns="http://www.w3.org/2000/svg"
   xmlns:sodipodi="http://sodipodi.sourceforge.net/DTD/sodipodi-0.dtd"
   xmlns:inkscape="http://www.inkscape.org/namespaces/inkscape"
   version="1.1"
   id="Layer_1"
   x="0px"
   y="0px"
   viewBox="0 0 483.80988 83.742372"
   enable-background="new 0 0 960 960"
   xml:space="preserve"
   inkscape:version="0.91 r13725"
   sodipodi:docname="logo.svg"
   width="483.80988"
   height="83.742371"
   inkscape:export-filename="D:\Blog\Beyond Code\assets\img\logo.png"
   inkscape:export-xdpi="90"
   inkscape:export-ydpi="90"><metadata
     id="metadata43"><rdf:RDF><cc:Work
         rdf:about=""><dc:format>image/svg+xml</dc:format><dc:type
           rdf:resource="http://purl.org/dc/dcmitype/StillImage" /><dc:title></dc:title></cc:Work></rdf:RDF></metadata><defs
     id="defs41" /><sodipodi:namedview
     pagecolor="#ffffff"
     bordercolor="#666666"
     borderopacity="1"
     objecttolerance="10"
     gridtolerance="10"
     guidetolerance="10"
     inkscape:pageopacity="0"
     inkscape:pageshadow="2"
     inkscape:window-width="2195"
     inkscape:window-height="1197"
     id="namedview39"
     showgrid="false"
     inkscape:zoom="1"
     inkscape:cx="158.00962"
     inkscape:cy="17.598287"
     inkscape:window-x="151"
     inkscape:window-y="233"
     inkscape:window-maximized="0"
     inkscape:current-layer="g5"
     fit-margin-top="0"
     fit-margin-left="0"
     fit-margin-right="0"
     fit-margin-bottom="0"
     units="px" /><g
     id="g3"
     transform="matrix(0.35464305,0,0,0.35464305,-137.53057,-108.94635)"><rect
       x="451.79999"
       y="377"
       width="32.599998"
       height="32.599998"
       id="rect25"
       style="fill:#28b6e9" /><rect
       x="512.79999"
       y="307.20001"
       width="19.5"
       height="19.5"
       id="rect27"
       style="fill:#0d9fda" /><rect
       x="548.70001"
       y="323.89999"
       width="23.4"
       height="23.4"
       id="rect29"
       style="fill:#4dc7ef" /><rect
       x="532.29999"
       y="360.10001"
       width="20.4"
       height="20.4"
       id="rect31"
       style="fill:#0d9fda" /><rect
       x="485.10001"
       y="343.79999"
       width="16.299999"
       height="16.299999"
       id="rect33"
       style="fill:#4dc7ef" /><path
       d="m 407.8,382.4 c 0.5,-10.5 1,-20.9 1.9,-31.4 0.8,-9.6 6.6,-16.4 15.4,-19 8,-2.4 16.6,-2.7 25.6,-4 0,9.3 0,16.7 0,24 -18.4,1.9 -18.5,1.9 -18.8,20.5 -0.2,16.7 0.1,33.6 -17.1,44.4 17.3,11.5 16.5,28.8 17,45.4 0.6,19.5 0.4,19.5 18.9,21.8 0,7.4 0,14.8 0,22.9 -4.8,0 -9.1,0.5 -13.3,-0.1 -20.4,-2.6 -26.5,-8.9 -28.4,-29.7 -0.7,-7.5 -1.1,-15.2 -1.1,-22.7 0.2,-14.1 -4,-24.8 -20.1,-26.7 0,-4.4 0,-8 0,-11.6 0,-3.5 0,-7.1 0,-10.4 16,-3.9 19.3,-8 20,-23.4 z"
       id="path35"
       inkscape:connector-curvature="0"
       style="fill:#0d9fda" /><polygon
       points="535.7,484 535.7,421.6 506.4,421.6 506.4,398.5 535.7,398.5 558.8,398.5 558.8,421.6 558.8,484 558.8,507.1 535.7,507.1 463.9,507.1 463.9,484 "
       id="polygon37"
       style="fill:#0d9fda" /></g><g
     transform="matrix(0.32748992,0,0,0.32748992,38.304552,-125.52673)"
     id="g5"
     style="fill:#000000;fill-opacity:1"><path
       inkscape:connector-curvature="0"
       d="m 195.64263,452.35297 c 18.50217,0 32.07073,2.84744 40.70574,8.53251 8.63496,5.68753 12.94881,14.97644 12.94881,27.85451 0,8.36415 -2.12276,15.21064 -6.36827,20.55659 -4.25042,5.3435 -10.42105,9.32061 -18.50215,11.92404 5.75583,1.23462 10.55036,2.98406 14.39084,5.23858 3.83072,2.2667 6.9148,4.90431 9.24497,7.9152 2.33015,3.01578 3.97224,6.34389 4.93114,9.96965 0.96377,3.63308 1.44202,7.43451 1.44202,11.40922 0,26.17824 -17.61158,39.26369 -52.83228,39.26369 l -43.77761,0 c -1.9227,0 -3.49647,-0.50995 -4.72863,-1.54447 -1.23463,-1.02968 -1.85194,-2.70104 -1.85194,-5.0312 l 0,-129.50778 c 0,-2.32769 0.61731,-4.00639 1.85194,-5.03359 1.23459,-1.02723 2.80349,-1.54452 4.72863,-1.54452 l 37.81679,-0.002 0,0 z m 40.49834,38.23648 c 0,-4.65784 -0.68808,-8.67158 -2.05688,-12.02896 -1.37126,-3.35734 -3.63066,-6.13403 -6.78551,-8.32754 -3.14997,-2.18622 -7.36623,-3.83073 -12.63894,-4.93116 -5.27519,-1.09309 -11.82647,-1.64209 -19.63429,-1.64209 l -31.451,0 0,53.44473 29.59907,0 c 14.66653,0 25.49261,-2.12519 32.48063,-6.37072 6.99291,-4.24552 10.48692,-10.9627 10.48692,-20.14426 z m 4.93355,65.57372 c 0,-4.65056 -0.68805,-8.76917 -2.06175,-12.33395 -1.37126,-3.55989 -3.73311,-6.46831 -7.08804,-8.73503 -3.35982,-2.26428 -7.77856,-3.97468 -13.2587,-5.13366 -5.485,-1.16629 -12.33639,-1.74945 -20.56147,-1.74945 l -34.53021,0 0,55.49915 37.20438,0 c 14.52504,0 24.87288,-2.2594 31.04107,-6.78062 6.17308,-4.52611 9.25472,-11.44582 9.25472,-20.76644 z"
       id="path7-9"
       style="fill:#000000;fill-opacity:1" /><path
       inkscape:connector-curvature="0"
       d="m 368.31559,539.71788 c 0,1.77873 -0.50996,3.05241 -1.54449,3.8039 -1.02478,0.75882 -2.35943,1.13214 -4.00396,1.13214 l -76.68037,0 c 0.27328,13.70765 3.52818,24.32875 9.76225,31.86332 6.24142,7.53946 15.18383,11.30919 26.82726,11.30919 4.65544,0 8.5984,-0.51483 11.8216,-1.5445 3.21827,-1.02965 5.96322,-2.33014 8.22262,-3.90881 2.26183,-1.57376 4.14058,-3.28905 5.65093,-5.1361 1.50545,-1.85436 2.80594,-3.59892 3.90878,-5.24101 0.8223,-1.09553 1.50546,-1.91535 2.0569,-2.46922 0.54656,-0.549 1.36882,-0.81982 2.46678,-0.81982 1.37126,0 2.74008,0.40991 4.1162,1.23462 1.36882,0.81982 2.0569,1.98612 2.0569,3.494 0,1.64941 -0.68808,3.42569 -2.0569,5.34104 -1.23459,1.92514 -2.84496,4.01373 -4.82866,6.27069 -1.98611,2.25941 -4.52366,4.38947 -7.6102,6.37072 -3.08411,1.98612 -6.74891,3.66481 -10.99442,5.03605 -4.25042,1.36881 -9.18641,2.05444 -14.80075,2.05444 -8.08356,0 -15.18138,-1.33465 -21.27883,-4.00885 -6.095,-2.67906 -11.20183,-6.44391 -15.3107,-11.30917 -4.10887,-4.86037 -7.22957,-10.65038 -9.34988,-17.37002 -2.12766,-6.70986 -3.1939,-14.18099 -3.1939,-22.40607 0,-7.94691 1.13457,-15.31314 3.39397,-22.09864 2.26671,-6.7855 5.51917,-12.57308 9.76712,-17.37004 4.24552,-4.79936 9.35234,-8.56422 15.31316,-11.30671 5.96323,-2.74008 12.64379,-4.11621 20.04418,-4.11621 7.53458,0 14.181,1.33709 19.93686,4.01372 5.75828,2.6742 10.59427,6.30241 14.4933,10.89439 3.90883,4.59443 6.85383,10.00626 8.83995,16.23788 1.97881,6.24384 2.9743,12.92442 2.9743,20.04907 z m -46.45912,-40.70082 c -5.61432,0 -10.55036,0.96379 -14.79342,2.87913 -4.25041,1.92269 -7.81518,4.52368 -10.69189,7.81517 -2.87914,3.28907 -5.13367,7.1271 -6.78304,11.50926 -1.64211,4.38948 -2.67177,8.97902 -3.08656,13.77352 l 69.89486,0 c -0.40746,-4.7945 -1.40296,-9.34991 -2.98162,-13.66859 -1.57865,-4.32116 -3.77703,-8.12018 -6.5781,-11.41167 -2.80837,-3.2915 -6.26824,-5.92665 -10.37712,-7.91033 -4.11862,-1.99099 -8.97901,-2.98649 -14.60311,-2.98649 z"
       id="path9-9"
       style="fill:#000000;fill-opacity:1" /><path
       inkscape:connector-curvature="0"
       d="m 418.06377,634.48563 c -1.23461,3.01089 -3.01334,4.52366 -5.33861,4.52366 -1.64942,0 -3.05481,-0.48068 -4.21868,-1.43956 -1.16387,-0.9589 -1.74456,-2.26428 -1.74456,-3.90393 0,-1.10041 0.47579,-2.81083 1.43713,-5.14097 l 15.41804,-34.53509 -39.05873,-93.32571 c -0.27571,-0.68318 -0.55388,-1.47373 -0.8247,-2.36432 -0.27084,-0.88569 -0.40749,-1.74944 -0.40749,-2.57169 0,-1.77874 0.78812,-3.11584 2.36189,-4.00887 1.5762,-0.88814 3.32077,-1.33953 5.241,-1.33953 1.77873,0 3.29151,1.51034 4.52367,4.52368 l 34.74004,83.66595 36.387,-83.87091 c 1.09066,-2.87913 2.5961,-4.32117 4.52122,-4.32117 1.77873,0 3.42571,0.45141 4.93116,1.33956 1.50301,0.88812 2.2667,2.08615 2.2667,3.59648 0,0.55388 -0.14146,1.27122 -0.41477,2.15937 -0.2733,0.89543 -0.54902,1.75185 -0.81981,2.5717 l -59.0005,134.44135 z"
       id="path11-4"
       style="fill:#000000;fill-opacity:1" /><path
       inkscape:connector-curvature="0"
       d="m 491.04274,543.4193 c 0,-8.63497 1.19558,-16.34278 3.60136,-23.12829 2.3936,-6.78063 5.74852,-12.54136 10.06968,-17.26511 4.31872,-4.72865 9.5207,-8.32511 15.62302,-10.79435 6.09012,-2.46922 12.84878,-3.70384 20.24916,-3.70384 7.39793,0 14.181,1.23462 20.35163,3.70384 6.16332,2.46924 11.40433,6.06327 15.71817,10.79435 4.31871,4.72863 7.67609,10.48448 10.07944,17.26511 2.39115,6.78062 3.60139,14.4884 3.60139,23.12829 0,8.63743 -1.20536,16.37453 -3.60139,23.23322 -2.40092,6.85382 -5.75826,12.63894 -10.07944,17.36512 -4.31872,4.73108 -9.55485,8.32514 -15.71817,10.79435 -6.16577,2.46926 -12.9537,3.70387 -20.35163,3.70387 -7.40038,0 -14.15904,-1.23461 -20.24916,-3.70387 -6.09988,-2.46921 -11.30918,-6.06085 -15.62302,-10.79435 -4.31873,-4.72862 -7.67608,-10.51373 -10.06968,-17.36512 -2.40578,-6.85869 -3.60136,-14.59824 -3.60136,-23.23322 z m 12.94882,0 c 0,14.11756 3.14754,25.00951 9.45235,32.68804 6.30485,7.67365 15.34976,11.50923 27.13717,11.50923 11.92161,0 21.03238,-3.8307 27.33722,-11.50923 6.30483,-7.67853 9.45969,-18.5656 9.45969,-32.68804 0,-13.97848 -3.15486,-24.8387 -9.45969,-32.58312 -6.30484,-7.73954 -15.41561,-11.61661 -27.33722,-11.61661 -11.78741,0 -20.83232,3.87707 -27.13717,11.61661 -6.30481,7.74442 -9.45235,18.60464 -9.45235,32.58312 z"
       id="path13-9"
       style="fill:#000000;fill-opacity:1" /><path
       inkscape:connector-curvature="0"
       d="m 629.79547,590.4933 c 0,2.33016 -0.51482,3.90878 -1.53961,4.72862 -1.03453,0.8247 -2.50095,1.23462 -4.42119,1.23462 -1.92024,0 -3.39398,-0.40992 -4.42121,-1.23462 -1.02721,-0.81984 -1.54203,-2.39602 -1.54203,-4.72862 l 0,-94.35296 c 0,-2.18862 0.51482,-3.6648 1.54203,-4.42119 1.02723,-0.75392 2.36679,-1.1297 4.01129,-1.1297 1.77872,0 3.21588,0.37578 4.31872,1.1297 1.09799,0.75639 1.64209,2.22767 1.64209,4.42119 l 0,18.70468 c 0.82469,-1.77872 2.12519,-4.17963 3.91125,-7.19298 1.78117,-3.0109 4.28454,-5.92665 7.50042,-8.73504 3.21828,-2.80837 7.12222,-5.23857 11.72153,-7.29788 4.58954,-2.05688 10.03551,-3.08653 16.34033,-3.08653 10.55036,0 19.08288,2.91328 25.59024,8.73502 6.50978,5.83392 9.76468,14.90566 9.76468,27.24207 l 0,67.0084 c 0,3.29391 -1.84948,4.93601 -5.55089,4.93601 -4.24797,0 -6.36828,-1.64453 -6.36828,-4.93601 l 0,-62.48718 c 0,-9.31819 -1.88122,-16.44282 -5.65093,-21.38131 -3.77216,-4.93113 -10.52108,-7.39793 -20.24916,-7.39793 -6.44392,0 -11.9948,1.37128 -16.65022,4.11134 -4.66032,2.74496 -8.46422,6.27066 -11.40921,10.58937 -2.94747,4.31872 -5.10684,9.18399 -6.47566,14.59093 -1.37124,5.41914 -2.05444,10.72603 -2.05444,15.93045 l 0,45.01955 -0.0102,0 z"
       id="path15-0"
       style="fill:#000000;fill-opacity:1" /><path
       inkscape:connector-curvature="0"
       d="m 826.31408,590.90321 c 0,2.19107 -0.44651,3.66968 -1.33466,4.42118 -0.89304,0.74908 -2.23011,1.1297 -4.01127,1.1297 -1.78116,0 -3.21832,-0.38062 -4.32117,-1.1297 -1.09552,-0.75882 -1.64209,-2.23011 -1.64209,-4.42118 l 0,-13.77353 c -3.70386,7.39548 -8.7716,12.81462 -15.21066,16.23543 -6.44635,3.42571 -13.91259,5.14099 -22.41096,5.14099 -7.26616,0 -13.70519,-1.37127 -19.31951,-4.11378 -5.62654,-2.74005 -10.38444,-6.57567 -14.28593,-11.51413 -3.9088,-4.93112 -6.85628,-10.7553 -8.83997,-17.47492 -1.98366,-6.70985 -2.97917,-14.11024 -2.97917,-22.20113 0,-8.08113 1.02479,-15.48394 3.0841,-22.20111 2.05445,-6.71233 5.03362,-12.46571 8.93756,-17.26756 3.91122,-4.79204 8.73991,-8.52761 14.49331,-11.20181 5.75341,-2.67662 12.25834,-4.01372 19.52692,-4.01372 8.77165,0 16.06708,1.74947 21.89615,5.24103 5.8266,3.494 10.72601,8.05427 14.69338,13.67104 l 0,-50.36304 c 0,-2.32773 0.51727,-3.93564 1.54204,-4.8311 1.03209,-0.88571 2.50095,-1.33466 4.42121,-1.33466 1.91535,0 3.36225,0.44895 4.32114,1.33466 0.95891,0.89546 1.43713,2.50337 1.43713,4.8311 l 0.002,133.83624 0,0 z m -81.40412,-47.07399 c 0,6.44879 0.75637,12.37299 2.26916,17.78237 1.50544,5.41914 3.72823,10.04041 6.67327,13.87844 2.94744,3.83561 6.61472,6.81965 11.00175,8.94488 4.38457,2.12518 9.38405,3.18411 15.00326,3.18411 5.75583,0 10.82606,-1.12969 15.21066,-3.39397 4.38703,-2.25941 8.08356,-5.37519 11.09935,-9.3499 3.01575,-3.97467 5.28004,-8.66914 6.78548,-14.08097 1.50547,-5.40936 2.25941,-11.33599 2.25941,-17.78235 0,-13.70032 -3.28662,-24.35559 -9.86473,-31.96581 -6.58055,-7.60533 -15.48881,-11.41165 -26.72479,-11.41165 -5.62409,0 -10.55523,1.06625 -14.79343,3.18901 -4.25041,2.12763 -7.77857,5.13611 -10.59183,9.0449 -2.8084,3.90637 -4.89943,8.56668 -6.26823,13.97849 -1.37126,5.41182 -2.05933,11.40921 -2.05933,17.98245 z"
       id="path17-7"
       style="fill:#000000;fill-opacity:1" /><path
       inkscape:connector-curvature="0"
       d="m 923.33877,473.11209 c -6.57323,0 -12.2632,1.33952 -17.05771,4.01127 -4.80669,2.6742 -8.70575,6.30728 -11.72154,10.89684 -3.01331,4.59198 -5.23857,9.93547 -6.67815,16.03048 -1.43712,6.10232 -2.16179,12.50963 -2.16179,19.22438 0,6.98801 0.72467,13.60029 2.16179,19.83682 1.43958,6.2365 3.69896,11.65075 6.7782,16.24031 3.08897,4.59445 7.02706,8.22018 11.824,10.89439 4.79695,2.67419 10.55525,4.00881 17.26754,4.00881 3.00846,0 5.75342,-0.23911 8.22265,-0.71976 2.47165,-0.47579 4.79694,-1.23462 6.98557,-2.25941 2.19352,-1.02964 4.32116,-2.39602 6.3756,-4.11374 2.052,-1.71042 4.24552,-3.73069 6.57566,-6.06084 3.00847,-3.15486 5.41423,-5.51918 7.18809,-7.09539 1.78117,-1.57376 4.11861,-2.3643 6.9905,-2.3643 3.56473,0 6.71472,1.27121 9.45484,3.80389 2.74009,2.53998 4.11616,5.52403 4.11616,8.94484 0,5.34106 -2.60588,10.68945 -7.81273,16.03048 -4.38221,4.66033 -10.72607,8.83996 -19.01211,12.5438 -8.29097,3.70386 -18.46557,5.54601 -30.53111,5.54601 -12.33155,0 -22.78429,-2.05443 -31.34851,-6.16575 -8.56423,-4.11133 -15.45465,-9.62561 -20.65664,-16.54531 -5.21415,-6.91971 -8.98144,-14.83004 -11.30918,-23.74074 -2.33015,-8.90339 -3.49644,-18.08981 -3.49644,-27.54461 0,-10.00382 1.33464,-19.56355 4.01372,-28.67677 2.66932,-9.11323 6.81236,-17.1675 12.434,-24.15063 5.61922,-6.99047 12.80975,-12.54625 21.58869,-16.65268 8.76432,-4.11375 19.25123,-6.16576 31.45096,-6.16576 5.33864,0 10.34542,0.51727 15.00572,1.54206 4.65544,1.02722 8.93754,2.36919 12.84879,4.01128 3.90877,1.64452 7.39793,3.56477 10.48445,5.75339 3.08412,2.19353 5.72419,4.45537 7.9104,6.78307 2.19107,2.3326 4.00879,4.76524 5.44829,7.2979 1.43967,2.5351 2.15693,5.17272 2.15693,7.91278 0,3.70138 -1.23205,6.81965 -3.7014,9.35477 -2.46678,2.53754 -5.68509,3.80144 -9.6597,3.80144 -3.70387,0 -6.47565,-0.81982 -8.32516,-2.4668 -1.85189,-1.64208 -3.94293,-3.76727 -6.26821,-6.37072 -4.38704,-4.79693 -8.60082,-8.22263 -12.64383,-10.28194 -4.03813,-2.06175 -9.00831,-3.09386 -14.89834,-3.09386 z"
       id="path19-0"
       style="fill:#000000;fill-opacity:1" /><path
       inkscape:connector-curvature="0"
       d="m 1106.0863,541.56982 c 0,8.63743 -1.3055,16.44284 -3.9087,23.43329 -2.6036,6.99047 -6.305,12.95371 -11.1019,17.88483 -4.8018,4.93116 -10.5504,8.77408 -17.2627,11.51414 -6.7195,2.74007 -14.1858,4.11378 -22.4109,4.11378 -8.4983,0 -16.1403,-1.33954 -22.9185,-4.00885 -6.7856,-2.67906 -12.5464,-6.47563 -17.2699,-11.41409 -4.7311,-4.93114 -8.3618,-10.89439 -10.8945,-17.88484 -2.53748,-6.9856 -3.81126,-14.72511 -3.81126,-23.22834 0,-8.49591 1.3397,-16.20372 4.01386,-23.12833 2.6742,-6.91725 6.4414,-12.81217 11.3092,-17.67499 4.8627,-4.86285 10.6503,-8.63256 17.3675,-11.30918 6.7147,-2.67174 14.1835,-4.00885 22.4085,-4.00885 8.2251,0 15.6547,1.33711 22.3061,4.00885 6.6488,2.67662 12.3608,6.40975 17.1626,11.20913 4.7969,4.79695 8.4936,10.65285 11.1019,17.57011 2.6032,6.92213 3.9087,14.56406 3.9087,22.92334 z m -28.5744,0.81982 c 0,-10.14044 -2.2592,-18.0898 -6.7831,-23.84321 -4.5236,-5.75097 -10.9626,-8.63255 -19.3218,-8.63255 -7.9493,0 -14.2202,2.84743 -18.8097,8.53008 -4.5943,5.68752 -6.8854,13.67349 -6.8854,23.94568 0,10.27952 2.2911,18.22887 6.8854,23.8481 4.5895,5.6192 10.8604,8.42513 18.8097,8.42513 8.2202,0 14.6249,-2.80593 19.222,-8.42513 4.5895,-5.61923 6.8829,-13.56858 6.8829,-23.8481 z"
       id="path21-5"
       style="fill:#000000;fill-opacity:1" /><path
       inkscape:connector-curvature="0"
       d="m 1231.6828,585.14736 c 0,7.53944 -4.5237,11.30918 -13.5686,11.30918 -5.0702,0 -8.7057,-0.89547 -10.8943,-2.6791 -2.1937,-1.77871 -3.2965,-4.65052 -3.2965,-8.63008 l 0,-0.82469 c -1.7787,2.74494 -4.1088,5.14097 -6.983,7.19541 -2.4645,1.78115 -5.6192,3.39396 -9.4573,4.83109 -3.8356,1.43958 -8.4959,2.15936 -13.9784,2.15936 -7.4006,0 -14.0127,-1.41028 -19.8368,-4.21867 -5.8243,-2.8084 -10.6871,-6.71475 -14.5911,-11.71909 -3.9087,-4.99948 -6.8829,-10.96026 -8.9423,-17.88483 -2.0619,-6.91485 -3.0866,-14.48844 -3.0866,-22.71352 0,-8.08356 1.0247,-15.54982 3.0866,-22.40852 2.0594,-6.85382 5.1045,-12.7756 9.1497,-17.77994 4.0358,-5.0019 8.9742,-8.90582 14.7934,-11.72153 5.8267,-2.80105 12.4438,-4.21379 19.8369,-4.21379 4.1186,0 7.7785,0.48069 11.0043,1.43955 3.2158,0.95892 6.029,2.19111 8.4226,3.69899 2.3961,1.51278 4.4212,3.22316 6.0657,5.14097 1.6445,1.92024 2.9426,3.77217 3.904,5.55089 l 0,-39.88588 c 0,-4.3846 1.4421,-7.2979 4.321,-8.73502 2.8817,-1.4396 6.1659,-2.15937 9.8673,-2.15937 4.797,0 8.3569,1.02723 10.6918,3.08654 2.3254,2.05443 3.4965,4.86282 3.4965,8.42515 l 0,122.7369 0,0 z m -75.4433,-42.75772 c 0,9.45483 1.9861,17.27243 5.9633,23.43326 3.9747,6.16581 10.0012,9.24991 18.0872,9.24991 7.8103,0 13.7761,-2.94016 17.8851,-8.83507 4.1112,-5.89003 6.1656,-13.8443 6.1656,-23.8481 0,-4.65544 -0.5172,-8.97169 -1.542,-12.94882 -1.0321,-3.97468 -2.4986,-7.43696 -4.4213,-10.38688 -1.9179,-2.94503 -4.3845,-5.23614 -7.3954,-6.88067 -3.0183,-1.64695 -6.4489,-2.46923 -10.2845,-2.46923 -3.9747,0 -7.5003,0.82228 -10.5844,2.46923 -3.0841,1.64453 -5.6511,3.93564 -7.7103,6.88067 -2.0544,2.94992 -3.5941,6.4122 -4.6261,10.38688 -1.0224,3.97713 -1.5372,8.29338 -1.5372,12.94882 z"
       id="path23-1"
       style="fill:#000000;fill-opacity:1" /><path
       inkscape:connector-curvature="0"
       d="m 1311.4375,485.86083 c 14.9397,0 26.8297,4.62616 35.6649,13.87357 8.8422,9.2523 13.2611,22.51588 13.2611,39.78342 0,3.97712 -1.203,6.71475 -3.6015,8.22264 -2.3936,1.50545 -5.7851,2.25938 -10.1697,2.25938 l -59.6202,0 c 1.3713,16.86008 10.4846,25.28522 27.3396,25.28522 4.3871,0 8.0861,-0.71977 11.0994,-2.15937 3.0135,-1.43956 5.6218,-2.70101 7.8104,-3.80387 2.0592,-1.09552 3.9747,-2.19107 5.7582,-3.28904 1.7787,-1.09555 3.9086,-1.64942 6.3706,-1.64942 2.7403,0 5.273,1.37127 7.603,4.11864 2.3302,2.74006 3.4965,5.82416 3.4965,9.24497 0,2.46925 -0.7174,4.62615 -2.1618,6.47077 -1.4372,1.85434 -3.8015,3.80878 -7.0856,5.86074 -4.3871,2.74009 -9.6281,4.83111 -15.7255,6.27069 -6.1,1.43958 -12.095,2.15936 -17.985,2.15936 -8.4984,0 -16.2085,-1.10042 -23.1282,-3.29393 -6.9221,-2.1862 -12.7805,-5.5509 -17.5775,-10.06968 -4.797,-4.52612 -8.4983,-10.24534 -11.1017,-17.16506 -2.6033,-6.91971 -3.9064,-15.10573 -3.9064,-24.56544 0,-7.26372 1.0273,-14.35424 3.084,-21.27881 2.0569,-6.91727 5.2728,-13.05619 9.6599,-18.39723 4.387,-5.34351 9.9721,-9.65979 16.7551,-12.9537 6.7904,-3.27932 14.8398,-4.92385 24.1604,-4.92385 z m 20.354,42.96268 c 0,-2.49121 -0.4148,-4.9775 -1.2345,-7.47114 -0.8247,-2.49118 -2.091,-4.77741 -3.8087,-6.85382 -1.7105,-2.07884 -3.8699,-3.73556 -6.4684,-4.98237 -2.6083,-1.24927 -5.7582,-1.87145 -9.4574,-1.87145 -5.8947,0 -10.9968,1.8007 -15.3104,5.39962 -4.319,3.59892 -6.8197,8.85457 -7.5079,15.77671 l 43.7873,0.002 0,0 z"
       id="path25"
       style="fill:#000000;fill-opacity:1" /></g></svg>